G04 #@! TF.GenerationSoftware,KiCad,Pcbnew,(5.0.1)-4*
G04 #@! TF.CreationDate,2020-06-25T10:55:37+02:00*
G04 #@! TF.ProjectId,sound_box,736F756E645F626F782E6B696361645F,rev?*
G04 #@! TF.SameCoordinates,PX7641700PY754d4c0*
G04 #@! TF.FileFunction,Copper,L2,Bot,Signal*
G04 #@! TF.FilePolarity,Positive*
%FSLAX46Y46*%
G04 Gerber Fmt 4.6, Leading zero omitted, Abs format (unit mm)*
G04 Created by KiCad (PCBNEW (5.0.1)-4) date 25/06/2020 10:55:37*
%MOMM*%
%LPD*%
G01*
G04 APERTURE LIST*
G04 #@! TA.AperFunction,ComponentPad*
%ADD10R,2.000000X2.000000*%
G04 #@! TD*
G04 #@! TA.AperFunction,ComponentPad*
%ADD11O,2.000000X2.000000*%
G04 #@! TD*
G04 #@! TA.AperFunction,ComponentPad*
%ADD12C,2.400000*%
G04 #@! TD*
G04 #@! TA.AperFunction,ComponentPad*
%ADD13C,2.000000*%
G04 #@! TD*
G04 #@! TA.AperFunction,ComponentPad*
%ADD14C,1.308000*%
G04 #@! TD*
G04 #@! TA.AperFunction,ComponentPad*
%ADD15R,1.308000X1.308000*%
G04 #@! TD*
G04 #@! TA.AperFunction,ComponentPad*
%ADD16R,1.400000X2.500000*%
G04 #@! TD*
G04 #@! TA.AperFunction,ComponentPad*
%ADD17O,1.400000X2.500000*%
G04 #@! TD*
G04 #@! TA.AperFunction,ComponentPad*
%ADD18O,1.400000X3.500000*%
G04 #@! TD*
G04 #@! TA.AperFunction,ComponentPad*
%ADD19R,1.600000X1.600000*%
G04 #@! TD*
G04 #@! TA.AperFunction,ComponentPad*
%ADD20O,1.600000X1.600000*%
G04 #@! TD*
G04 #@! TA.AperFunction,ComponentPad*
%ADD21R,2.499360X2.499360*%
G04 #@! TD*
G04 #@! TA.AperFunction,ComponentPad*
%ADD22C,2.499360*%
G04 #@! TD*
G04 #@! TA.AperFunction,ComponentPad*
%ADD23C,1.600000*%
G04 #@! TD*
G04 #@! TA.AperFunction,ViaPad*
%ADD24C,2.400000*%
G04 #@! TD*
G04 #@! TA.AperFunction,Conductor*
%ADD25C,0.600000*%
G04 #@! TD*
G04 #@! TA.AperFunction,Conductor*
%ADD26C,1.000000*%
G04 #@! TD*
G04 #@! TA.AperFunction,Conductor*
%ADD27C,0.254000*%
G04 #@! TD*
G04 APERTURE END LIST*
D10*
G04 #@! TO.P,D1,1*
G04 #@! TO.N,Net-(D1-Pad1)*
X14430000Y36005000D03*
D11*
G04 #@! TO.P,D1,2*
G04 #@! TO.N,Net-(A1-Pad30)*
X14430000Y43625000D03*
G04 #@! TD*
D12*
G04 #@! TO.P,SW2,2*
G04 #@! TO.N,Net-(A1-Pad6)*
X30940000Y18280000D03*
G04 #@! TO.P,SW2,1*
G04 #@! TO.N,GND*
X30940000Y13780000D03*
G04 #@! TO.P,SW2,2*
G04 #@! TO.N,Net-(A1-Pad6)*
X37440000Y18280000D03*
G04 #@! TO.P,SW2,1*
G04 #@! TO.N,GND*
X37440000Y13780000D03*
G04 #@! TD*
D13*
G04 #@! TO.P,R2,1*
G04 #@! TO.N,Net-(A1-Pad27)*
X35210000Y32195000D03*
G04 #@! TO.P,R2,2*
G04 #@! TO.N,Net-(A1-Pad23)*
X32210000Y32195000D03*
G04 #@! TD*
D14*
G04 #@! TO.P,U1,4*
G04 #@! TO.N,N/C*
X5540000Y11875000D03*
G04 #@! TO.P,U1,5*
X5540000Y9335000D03*
G04 #@! TO.P,U1,13*
X23574000Y11875000D03*
G04 #@! TO.P,U1,12*
X23574000Y9335000D03*
G04 #@! TO.P,U1,6*
G04 #@! TO.N,Net-(J1-Pad4)*
X5540000Y6795000D03*
G04 #@! TO.P,U1,3*
G04 #@! TO.N,Net-(R1-Pad1)*
X5540000Y14415000D03*
G04 #@! TO.P,U1,14*
G04 #@! TO.N,N/C*
X23574000Y14415000D03*
G04 #@! TO.P,U1,11*
X23574000Y6795000D03*
G04 #@! TO.P,U1,2*
G04 #@! TO.N,Net-(A1-Pad8)*
X5540000Y16955000D03*
G04 #@! TO.P,U1,15*
G04 #@! TO.N,N/C*
X23574000Y16955000D03*
G04 #@! TO.P,U1,7*
G04 #@! TO.N,GND*
X5540000Y4255000D03*
G04 #@! TO.P,U1,10*
X23574000Y4255000D03*
D15*
G04 #@! TO.P,U1,1*
G04 #@! TO.N,Net-(A1-Pad27)*
X5540000Y19495000D03*
D14*
G04 #@! TO.P,U1,16*
G04 #@! TO.N,N/C*
X23574000Y19495000D03*
G04 #@! TO.P,U1,8*
G04 #@! TO.N,Net-(J1-Pad3)*
X5540000Y1715000D03*
G04 #@! TO.P,U1,9*
G04 #@! TO.N,N/C*
X23574000Y1715000D03*
G04 #@! TD*
D16*
G04 #@! TO.P,SW1,1*
G04 #@! TO.N,Net-(D1-Pad1)*
X9100000Y42990000D03*
D17*
G04 #@! TO.P,SW1,2*
G04 #@! TO.N,Net-(J1-Pad1)*
X7100000Y42990000D03*
G04 #@! TO.P,SW1,3*
G04 #@! TO.N,N/C*
X5100000Y42990000D03*
D18*
G04 #@! TO.P,SW1,*
G04 #@! TO.N,*
X11200000Y42990000D03*
X3000000Y42990000D03*
G04 #@! TD*
D10*
G04 #@! TO.P,J1,1*
G04 #@! TO.N,Net-(J1-Pad1)*
X4905000Y37275000D03*
D13*
G04 #@! TO.P,J1,2*
G04 #@! TO.N,GND*
X4905000Y33465000D03*
G04 #@! TO.P,J1,3*
G04 #@! TO.N,Net-(J1-Pad3)*
X4905000Y29655000D03*
G04 #@! TO.P,J1,4*
G04 #@! TO.N,Net-(J1-Pad4)*
X4905000Y25845000D03*
G04 #@! TD*
D19*
G04 #@! TO.P,A1,1*
G04 #@! TO.N,N/C*
X27130000Y40450000D03*
D20*
G04 #@! TO.P,A1,17*
X42370000Y7430000D03*
G04 #@! TO.P,A1,2*
X27130000Y37910000D03*
G04 #@! TO.P,A1,18*
X42370000Y9970000D03*
G04 #@! TO.P,A1,3*
X27130000Y35370000D03*
G04 #@! TO.P,A1,19*
X42370000Y12510000D03*
G04 #@! TO.P,A1,4*
G04 #@! TO.N,GND*
X27130000Y32830000D03*
G04 #@! TO.P,A1,20*
G04 #@! TO.N,N/C*
X42370000Y15050000D03*
G04 #@! TO.P,A1,5*
X27130000Y30290000D03*
G04 #@! TO.P,A1,21*
X42370000Y17590000D03*
G04 #@! TO.P,A1,6*
G04 #@! TO.N,Net-(A1-Pad6)*
X27130000Y27750000D03*
G04 #@! TO.P,A1,22*
G04 #@! TO.N,N/C*
X42370000Y20130000D03*
G04 #@! TO.P,A1,7*
G04 #@! TO.N,Net-(A1-Pad7)*
X27130000Y25210000D03*
G04 #@! TO.P,A1,23*
G04 #@! TO.N,Net-(A1-Pad23)*
X42370000Y22670000D03*
G04 #@! TO.P,A1,8*
G04 #@! TO.N,Net-(A1-Pad8)*
X27130000Y22670000D03*
G04 #@! TO.P,A1,24*
G04 #@! TO.N,N/C*
X42370000Y25210000D03*
G04 #@! TO.P,A1,9*
X27130000Y20130000D03*
G04 #@! TO.P,A1,25*
X42370000Y27750000D03*
G04 #@! TO.P,A1,10*
X27130000Y17590000D03*
G04 #@! TO.P,A1,26*
X42370000Y30290000D03*
G04 #@! TO.P,A1,11*
X27130000Y15050000D03*
G04 #@! TO.P,A1,27*
G04 #@! TO.N,Net-(A1-Pad27)*
X42370000Y32830000D03*
G04 #@! TO.P,A1,12*
G04 #@! TO.N,N/C*
X27130000Y12510000D03*
G04 #@! TO.P,A1,28*
X42370000Y35370000D03*
G04 #@! TO.P,A1,13*
X27130000Y9970000D03*
G04 #@! TO.P,A1,29*
G04 #@! TO.N,GND*
X42370000Y37910000D03*
G04 #@! TO.P,A1,14*
G04 #@! TO.N,N/C*
X27130000Y7430000D03*
G04 #@! TO.P,A1,30*
G04 #@! TO.N,Net-(A1-Pad30)*
X42370000Y40450000D03*
G04 #@! TO.P,A1,15*
G04 #@! TO.N,N/C*
X27130000Y4890000D03*
G04 #@! TO.P,A1,16*
X42370000Y4890000D03*
G04 #@! TD*
D21*
G04 #@! TO.P,J2,1*
G04 #@! TO.N,Net-(J1-Pad4)*
X12525000Y25845000D03*
D22*
G04 #@! TO.P,J2,2*
G04 #@! TO.N,Net-(J1-Pad3)*
X12525000Y29655000D03*
G04 #@! TD*
D23*
G04 #@! TO.P,R1,1*
G04 #@! TO.N,Net-(R1-Pad1)*
X20145000Y23305000D03*
D20*
G04 #@! TO.P,R1,2*
G04 #@! TO.N,Net-(A1-Pad7)*
X20145000Y33465000D03*
G04 #@! TD*
G04 #@! TO.P,R3,2*
G04 #@! TO.N,GND*
X23320000Y30290000D03*
D23*
G04 #@! TO.P,R3,1*
G04 #@! TO.N,Net-(A1-Pad23)*
X23320000Y40450000D03*
G04 #@! TD*
D21*
G04 #@! TO.P,J3,1*
G04 #@! TO.N,GND*
X33190000Y5000000D03*
D22*
G04 #@! TO.P,J3,2*
G04 #@! TO.N,Net-(A1-Pad6)*
X37000000Y5000000D03*
G04 #@! TD*
D24*
G04 #@! TO.N,Net-(A1-Pad27)*
X17605000Y27750000D03*
X17605000Y39180000D03*
G04 #@! TD*
D25*
G04 #@! TO.N,Net-(A1-Pad23)*
X25070001Y42200001D02*
X28690001Y42200001D01*
X23320000Y40450000D02*
X25070001Y42200001D01*
X32210000Y38680002D02*
X32210000Y32195000D01*
X28690001Y42200001D02*
X32210000Y38680002D01*
G04 #@! TO.N,GND*
X23574000Y4255000D02*
X5540000Y4255000D01*
X30940000Y13780000D02*
X30940000Y4255000D01*
X30940000Y4255000D02*
X29035000Y2350000D01*
X25479000Y2350000D02*
X23574000Y4255000D01*
X4905000Y33465000D02*
X14430000Y33465000D01*
X14430000Y33465000D02*
X17605000Y30290000D01*
X43501370Y37910000D02*
X44910000Y36501370D01*
X42370000Y37910000D02*
X43501370Y37910000D01*
X44910000Y36501370D02*
X44910000Y3620000D01*
X44910000Y3620000D02*
X43640000Y2350000D01*
X29035000Y2350000D02*
X27765000Y2350000D01*
X27765000Y2350000D02*
X25479000Y2350000D01*
X26330001Y33629999D02*
X27130000Y32830000D01*
X24744999Y35215001D02*
X26330001Y33629999D01*
X19304999Y35215001D02*
X24744999Y35215001D01*
X17605000Y33515002D02*
X19304999Y35215001D01*
X17605000Y30290000D02*
X17605000Y33515002D01*
D26*
X25860000Y32830000D02*
X27130000Y32830000D01*
X23320000Y30290000D02*
X25860000Y32830000D01*
X40000000Y6913998D02*
X40000000Y2350000D01*
X37440000Y9473998D02*
X40000000Y6913998D01*
X37440000Y13780000D02*
X37440000Y9473998D01*
D25*
X43640000Y2350000D02*
X40000000Y2350000D01*
X40000000Y2350000D02*
X27765000Y2350000D01*
D26*
X30940000Y4999680D02*
X30940000Y4255000D01*
X30940320Y5000000D02*
X30940000Y4999680D01*
X33190000Y5000000D02*
X30940320Y5000000D01*
X30559990Y30531380D02*
X30559990Y28440010D01*
X27130000Y32830000D02*
X28261370Y32830000D01*
X28261370Y32830000D02*
X30559990Y30531380D01*
X38369999Y20630001D02*
X39630001Y20630001D01*
X30559990Y28440010D02*
X38369999Y20630001D01*
X38639999Y14979999D02*
X37440000Y13780000D01*
X39790001Y16130001D02*
X38639999Y14979999D01*
X39790001Y19408001D02*
X39790001Y16130001D01*
X39099001Y20099001D02*
X39790001Y19408001D01*
X39630001Y20630001D02*
X39099001Y20099001D01*
G04 #@! TO.N,Net-(A1-Pad6)*
X30940000Y19977056D02*
X30940000Y18280000D01*
X30940000Y25071370D02*
X30940000Y19977056D01*
X28261370Y27750000D02*
X30940000Y25071370D01*
X27130000Y27750000D02*
X28261370Y27750000D01*
X37000000Y6767314D02*
X37000000Y5000000D01*
X35089999Y8677315D02*
X37000000Y6767314D01*
X35089999Y13108003D02*
X35089999Y8677315D01*
X32139999Y16058003D02*
X35089999Y13108003D01*
X32139999Y17080001D02*
X32139999Y16058003D01*
X30940000Y18280000D02*
X32139999Y17080001D01*
X30940000Y18280000D02*
X37440000Y18280000D01*
G04 #@! TO.N,Net-(A1-Pad27)*
X5540000Y19495000D02*
X10620000Y19495000D01*
X16605001Y26750001D02*
X17605000Y27750000D01*
X16605001Y25480001D02*
X16605001Y26750001D01*
X10620000Y19495000D02*
X16605001Y25480001D01*
X35210000Y33326370D02*
X35210000Y32195000D01*
X35210000Y37730625D02*
X35210000Y33326370D01*
X29290614Y43650011D02*
X35210000Y37730625D01*
X22075011Y43650011D02*
X29290614Y43650011D01*
X17605000Y39180000D02*
X22075011Y43650011D01*
X35210000Y32195000D02*
X39195000Y32195000D01*
X39830000Y32830000D02*
X42370000Y32830000D01*
X39195000Y32195000D02*
X39830000Y32830000D01*
G04 #@! TO.N,Net-(A1-Pad30)*
X41570001Y41249999D02*
X42370000Y40450000D01*
X37519979Y45300021D02*
X41570001Y41249999D01*
X16105021Y45300021D02*
X37519979Y45300021D01*
X14430000Y43625000D02*
X16105021Y45300021D01*
G04 #@! TO.N,Net-(D1-Pad1)*
X9100000Y40740000D02*
X9100000Y42990000D01*
X9100000Y39585000D02*
X9100000Y40740000D01*
X12680000Y36005000D02*
X9100000Y39585000D01*
X14430000Y36005000D02*
X12680000Y36005000D01*
G04 #@! TO.N,Net-(J1-Pad1)*
X7100000Y39470000D02*
X4905000Y37275000D01*
X7100000Y42990000D02*
X7100000Y39470000D01*
G04 #@! TO.N,Net-(J1-Pad3)*
X4905000Y29655000D02*
X12525000Y29655000D01*
X1984990Y28149203D02*
X1984990Y2730010D01*
X4905000Y29655000D02*
X3490787Y29655000D01*
X3490787Y29655000D02*
X1984990Y28149203D01*
X3000000Y1715000D02*
X5540000Y1715000D01*
X1984990Y2730010D02*
X3000000Y1715000D01*
G04 #@! TO.N,Net-(J1-Pad4)*
X4905000Y25845000D02*
X12525000Y25845000D01*
X3965999Y21299001D02*
X3635000Y20968002D01*
X4270000Y21299001D02*
X3965999Y21299001D01*
X4270000Y21603002D02*
X4270000Y21299001D01*
X4905000Y25845000D02*
X4905000Y22238002D01*
X4905000Y22238002D02*
X4270000Y21603002D01*
X4615105Y6795000D02*
X5540000Y6795000D01*
X3635000Y7775105D02*
X4615105Y6795000D01*
X3635000Y20968002D02*
X3635000Y7775105D01*
D25*
G04 #@! TO.N,Net-(R1-Pad1)*
X5540000Y14415000D02*
X16970000Y14415000D01*
X16970000Y14415000D02*
X20145000Y17590000D01*
X20145000Y17590000D02*
X20145000Y23305000D01*
D26*
G04 #@! TO.N,Net-(A1-Pad7)*
X25998630Y25210000D02*
X27130000Y25210000D01*
X25513998Y25210000D02*
X25998630Y25210000D01*
X20145000Y30578998D02*
X25513998Y25210000D01*
X20145000Y33465000D02*
X20145000Y30578998D01*
G04 #@! TO.N,Net-(A1-Pad8)*
X24330000Y22670000D02*
X27130000Y22670000D01*
X15955000Y16955000D02*
X18000000Y19000000D01*
X5540000Y16955000D02*
X15955000Y16955000D01*
X18000000Y19000000D02*
X18000000Y24541534D01*
X18000000Y24541534D02*
X19458466Y26000000D01*
X19458466Y26000000D02*
X21000000Y26000000D01*
X21000000Y26000000D02*
X24330000Y22670000D01*
G04 #@! TO.N,Net-(A1-Pad23)*
X41238630Y22670000D02*
X42370000Y22670000D01*
X32210000Y32195000D02*
X32210000Y30780787D01*
X32210000Y30780787D02*
X33990787Y29000000D01*
X33990787Y29000000D02*
X37000000Y29000000D01*
X37000000Y29000000D02*
X40419999Y25580001D01*
X40419999Y25580001D02*
X40419999Y23488631D01*
X40419999Y23488631D02*
X41238630Y22670000D01*
G04 #@! TD*
D27*
G04 #@! TO.N,GND*
G36*
X1561599Y44635806D02*
X1473001Y44190393D01*
X1473000Y41789608D01*
X1561598Y41344195D01*
X1899095Y40839095D01*
X2404194Y40501598D01*
X3000000Y40383085D01*
X3595805Y40501598D01*
X4100905Y40839095D01*
X4300450Y41137735D01*
X4504194Y41001598D01*
X5100000Y40883085D01*
X5695805Y41001598D01*
X5773001Y41053178D01*
X5773001Y40019662D01*
X4871541Y39118201D01*
X3905000Y39118201D01*
X3582321Y39054016D01*
X3308767Y38871233D01*
X3125984Y38597679D01*
X3061799Y38275000D01*
X3061799Y36275000D01*
X3125984Y35952321D01*
X3308767Y35678767D01*
X3582321Y35495984D01*
X3905000Y35431799D01*
X5905000Y35431799D01*
X6227679Y35495984D01*
X6501233Y35678767D01*
X6684016Y35952321D01*
X6748201Y36275000D01*
X6748201Y37241541D01*
X7945915Y38439254D01*
X8056713Y38513287D01*
X8138421Y38635571D01*
X8143287Y38628288D01*
X8254086Y38554254D01*
X11649256Y35159082D01*
X11723287Y35048287D01*
X11834082Y34974256D01*
X11834085Y34974253D01*
X12028846Y34844119D01*
X12162230Y34754994D01*
X12549304Y34678000D01*
X12549308Y34678000D01*
X12669899Y34654013D01*
X12833767Y34408767D01*
X13107321Y34225984D01*
X13430000Y34161799D01*
X15430000Y34161799D01*
X15752679Y34225984D01*
X16026233Y34408767D01*
X16209016Y34682321D01*
X16273201Y35005000D01*
X16273201Y37005000D01*
X16209016Y37327679D01*
X16026233Y37601233D01*
X15752679Y37784016D01*
X15430000Y37848201D01*
X13430000Y37848201D01*
X13107321Y37784016D01*
X12909695Y37651967D01*
X10427000Y40134660D01*
X10427000Y40619995D01*
X10604194Y40501598D01*
X11200000Y40383085D01*
X11795805Y40501598D01*
X12300905Y40839095D01*
X12638402Y41344194D01*
X12727000Y41789607D01*
X12727000Y42885207D01*
X13112806Y42307806D01*
X13717140Y41904004D01*
X14250057Y41798000D01*
X14609943Y41798000D01*
X15142860Y41904004D01*
X15747194Y42307806D01*
X16150996Y42912140D01*
X16289350Y43607689D01*
X16654682Y43973021D01*
X20521360Y43973021D01*
X17755340Y41207000D01*
X17201805Y41207000D01*
X16456797Y40898407D01*
X15886593Y40328203D01*
X15578000Y39583195D01*
X15578000Y38776805D01*
X15886593Y38031797D01*
X16456797Y37461593D01*
X17201805Y37153000D01*
X18008195Y37153000D01*
X18753203Y37461593D01*
X19323407Y38031797D01*
X19632000Y38776805D01*
X19632000Y39330340D01*
X22624672Y42323011D01*
X23599192Y42323011D01*
X23353182Y42077000D01*
X22996370Y42077000D01*
X22398378Y41829304D01*
X21940696Y41371622D01*
X21693000Y40773630D01*
X21693000Y40126370D01*
X21940696Y39528378D01*
X22398378Y39070696D01*
X22996370Y38823000D01*
X23643630Y38823000D01*
X24241622Y39070696D01*
X24699304Y39528378D01*
X24947000Y40126370D01*
X24947000Y40483182D01*
X25486799Y41022980D01*
X25486799Y39650000D01*
X25550984Y39327321D01*
X25733767Y39053767D01*
X25874592Y38959671D01*
X25597400Y38544824D01*
X25471126Y37910000D01*
X25597400Y37275176D01*
X25956999Y36736999D01*
X26102168Y36640000D01*
X25956999Y36543001D01*
X25597400Y36004824D01*
X25471126Y35370000D01*
X25597400Y34735176D01*
X25956999Y34196999D01*
X26495176Y33837400D01*
X26969758Y33743000D01*
X27290242Y33743000D01*
X27764824Y33837400D01*
X28303001Y34196999D01*
X28662600Y34735176D01*
X28788874Y35370000D01*
X28662600Y36004824D01*
X28303001Y36543001D01*
X28157832Y36640000D01*
X28303001Y36736999D01*
X28662600Y37275176D01*
X28788874Y37910000D01*
X28662600Y38544824D01*
X28385408Y38959671D01*
X28526233Y39053767D01*
X28709016Y39327321D01*
X28773201Y39650000D01*
X28773201Y40522983D01*
X31083000Y38213183D01*
X31083001Y33651769D01*
X30661144Y33229912D01*
X30383000Y32558413D01*
X30383000Y31831587D01*
X30661144Y31160088D01*
X30883000Y30938232D01*
X30883000Y30911479D01*
X30857004Y30780787D01*
X30883000Y30650095D01*
X30883000Y30650091D01*
X30923139Y30448302D01*
X30959994Y30263018D01*
X31164661Y29956713D01*
X31253288Y29824074D01*
X31364086Y29750041D01*
X32960040Y28154086D01*
X33034074Y28043287D01*
X33473017Y27749994D01*
X33860091Y27673000D01*
X33860094Y27673000D01*
X33990786Y27647004D01*
X34121478Y27673000D01*
X36450340Y27673000D01*
X39092999Y25030340D01*
X39093000Y23619327D01*
X39067003Y23488631D01*
X39169993Y22970862D01*
X39389253Y22642717D01*
X39463287Y22531918D01*
X39574085Y22457885D01*
X40207882Y21824088D01*
X40281917Y21713287D01*
X40720860Y21419994D01*
X41107934Y21343000D01*
X41107937Y21343000D01*
X41222698Y21320173D01*
X41196999Y21303001D01*
X40837400Y20764824D01*
X40711126Y20130000D01*
X40837400Y19495176D01*
X41196999Y18956999D01*
X41342168Y18860000D01*
X41196999Y18763001D01*
X40837400Y18224824D01*
X40711126Y17590000D01*
X40837400Y16955176D01*
X41196999Y16416999D01*
X41342168Y16320000D01*
X41196999Y16223001D01*
X40837400Y15684824D01*
X40711126Y15050000D01*
X40837400Y14415176D01*
X41196999Y13876999D01*
X41342168Y13780000D01*
X41196999Y13683001D01*
X40837400Y13144824D01*
X40711126Y12510000D01*
X40837400Y11875176D01*
X41196999Y11336999D01*
X41342168Y11240000D01*
X41196999Y11143001D01*
X40837400Y10604824D01*
X40711126Y9970000D01*
X40837400Y9335176D01*
X41196999Y8796999D01*
X41342168Y8700000D01*
X41196999Y8603001D01*
X40837400Y8064824D01*
X40711126Y7430000D01*
X40837400Y6795176D01*
X41196999Y6256999D01*
X41342168Y6160000D01*
X41196999Y6063001D01*
X40837400Y5524824D01*
X40711126Y4890000D01*
X40837400Y4255176D01*
X41196999Y3716999D01*
X41735176Y3357400D01*
X42209758Y3263000D01*
X42530242Y3263000D01*
X43004824Y3357400D01*
X43543001Y3716999D01*
X43902600Y4255176D01*
X44028874Y4890000D01*
X43902600Y5524824D01*
X43543001Y6063001D01*
X43397832Y6160000D01*
X43543001Y6256999D01*
X43902600Y6795176D01*
X44028874Y7430000D01*
X43902600Y8064824D01*
X43543001Y8603001D01*
X43397832Y8700000D01*
X43543001Y8796999D01*
X43902600Y9335176D01*
X44028874Y9970000D01*
X43902600Y10604824D01*
X43543001Y11143001D01*
X43397832Y11240000D01*
X43543001Y11336999D01*
X43902600Y11875176D01*
X44028874Y12510000D01*
X43902600Y13144824D01*
X43543001Y13683001D01*
X43397832Y13780000D01*
X43543001Y13876999D01*
X43902600Y14415176D01*
X44028874Y15050000D01*
X43902600Y15684824D01*
X43543001Y16223001D01*
X43397832Y16320000D01*
X43543001Y16416999D01*
X43902600Y16955176D01*
X44028874Y17590000D01*
X43902600Y18224824D01*
X43543001Y18763001D01*
X43397832Y18860000D01*
X43543001Y18956999D01*
X43902600Y19495176D01*
X44028874Y20130000D01*
X43902600Y20764824D01*
X43543001Y21303001D01*
X43397832Y21400000D01*
X43543001Y21496999D01*
X43902600Y22035176D01*
X44028874Y22670000D01*
X43902600Y23304824D01*
X43543001Y23843001D01*
X43397832Y23940000D01*
X43543001Y24036999D01*
X43902600Y24575176D01*
X44028874Y25210000D01*
X43902600Y25844824D01*
X43543001Y26383001D01*
X43397832Y26480000D01*
X43543001Y26576999D01*
X43902600Y27115176D01*
X44028874Y27750000D01*
X43902600Y28384824D01*
X43543001Y28923001D01*
X43397832Y29020000D01*
X43543001Y29116999D01*
X43902600Y29655176D01*
X44028874Y30290000D01*
X43902600Y30924824D01*
X43543001Y31463001D01*
X43397832Y31560000D01*
X43543001Y31656999D01*
X43902600Y32195176D01*
X44028874Y32830000D01*
X43902600Y33464824D01*
X43543001Y34003001D01*
X43397832Y34100000D01*
X43543001Y34196999D01*
X43902600Y34735176D01*
X44028874Y35370000D01*
X43902600Y36004824D01*
X43543001Y36543001D01*
X43004824Y36902600D01*
X42530242Y36997000D01*
X42209758Y36997000D01*
X41735176Y36902600D01*
X41196999Y36543001D01*
X40837400Y36004824D01*
X40711126Y35370000D01*
X40837400Y34735176D01*
X41196999Y34196999D01*
X41256862Y34157000D01*
X39960692Y34157000D01*
X39830000Y34182996D01*
X39699308Y34157000D01*
X39699304Y34157000D01*
X39312230Y34080006D01*
X38873287Y33786713D01*
X38799253Y33675914D01*
X38645339Y33522000D01*
X36537000Y33522000D01*
X36537000Y37599933D01*
X36562996Y37730625D01*
X36537000Y37861317D01*
X36537000Y37861321D01*
X36460006Y38248395D01*
X36283010Y38513287D01*
X36240746Y38576540D01*
X36240744Y38576542D01*
X36166712Y38687338D01*
X36055917Y38761369D01*
X30844264Y43973021D01*
X36970319Y43973021D01*
X40724086Y40219253D01*
X40724089Y40219251D01*
X40765203Y40178137D01*
X40837400Y39815176D01*
X41196999Y39276999D01*
X41735176Y38917400D01*
X42209758Y38823000D01*
X42530242Y38823000D01*
X43004824Y38917400D01*
X43543001Y39276999D01*
X43902600Y39815176D01*
X44028874Y40450000D01*
X43902600Y41084824D01*
X43543001Y41623001D01*
X43004824Y41982600D01*
X42641863Y42054797D01*
X42600749Y42095911D01*
X42600747Y42095914D01*
X39598660Y45098000D01*
X45098000Y45098000D01*
X45098001Y902000D01*
X24840268Y902000D01*
X25055000Y1420411D01*
X25055000Y2009589D01*
X24829532Y2553919D01*
X24412919Y2970532D01*
X23868589Y3196000D01*
X23279411Y3196000D01*
X22735081Y2970532D01*
X22318468Y2553919D01*
X22093000Y2009589D01*
X22093000Y1420411D01*
X22307732Y902000D01*
X6806268Y902000D01*
X7021000Y1420411D01*
X7021000Y2009589D01*
X6795532Y2553919D01*
X6378919Y2970532D01*
X5834589Y3196000D01*
X5245411Y3196000D01*
X4873621Y3042000D01*
X3549661Y3042000D01*
X3311990Y3279670D01*
X3311990Y6221454D01*
X3584359Y5949086D01*
X3658392Y5838287D01*
X4097335Y5544994D01*
X4484409Y5468000D01*
X4484413Y5468000D01*
X4615105Y5442004D01*
X4745797Y5468000D01*
X4873621Y5468000D01*
X5245411Y5314000D01*
X5834589Y5314000D01*
X6378919Y5539468D01*
X6795532Y5956081D01*
X7021000Y6500411D01*
X7021000Y7089589D01*
X6795532Y7633919D01*
X6378919Y8050532D01*
X6343990Y8065000D01*
X6378919Y8079468D01*
X6795532Y8496081D01*
X7021000Y9040411D01*
X7021000Y9629589D01*
X6795532Y10173919D01*
X6378919Y10590532D01*
X6343990Y10605000D01*
X6378919Y10619468D01*
X6795532Y11036081D01*
X7021000Y11580411D01*
X7021000Y12169589D01*
X6795532Y12713919D01*
X6378919Y13130532D01*
X6343990Y13145000D01*
X6378919Y13159468D01*
X6507451Y13288000D01*
X16859002Y13288000D01*
X16970000Y13265921D01*
X17080998Y13288000D01*
X17080999Y13288000D01*
X17409733Y13353389D01*
X17782522Y13602478D01*
X17845400Y13696582D01*
X20863421Y16714602D01*
X20957522Y16777478D01*
X21206611Y17150267D01*
X21272000Y17479001D01*
X21272000Y17479002D01*
X21294079Y17589999D01*
X21272000Y17700997D01*
X21272000Y19789589D01*
X22093000Y19789589D01*
X22093000Y19200411D01*
X22318468Y18656081D01*
X22735081Y18239468D01*
X22770010Y18225000D01*
X22735081Y18210532D01*
X22318468Y17793919D01*
X22093000Y17249589D01*
X22093000Y16660411D01*
X22318468Y16116081D01*
X22735081Y15699468D01*
X22770010Y15685000D01*
X22735081Y15670532D01*
X22318468Y15253919D01*
X22093000Y14709589D01*
X22093000Y14120411D01*
X22318468Y13576081D01*
X22735081Y13159468D01*
X22770010Y13145000D01*
X22735081Y13130532D01*
X22318468Y12713919D01*
X22093000Y12169589D01*
X22093000Y11580411D01*
X22318468Y11036081D01*
X22735081Y10619468D01*
X22770010Y10605000D01*
X22735081Y10590532D01*
X22318468Y10173919D01*
X22093000Y9629589D01*
X22093000Y9040411D01*
X22318468Y8496081D01*
X22735081Y8079468D01*
X22770010Y8065000D01*
X22735081Y8050532D01*
X22318468Y7633919D01*
X22093000Y7089589D01*
X22093000Y6500411D01*
X22318468Y5956081D01*
X22735081Y5539468D01*
X23279411Y5314000D01*
X23868589Y5314000D01*
X24412919Y5539468D01*
X24829532Y5956081D01*
X25055000Y6500411D01*
X25055000Y7089589D01*
X24829532Y7633919D01*
X24412919Y8050532D01*
X24377990Y8065000D01*
X24412919Y8079468D01*
X24829532Y8496081D01*
X25055000Y9040411D01*
X25055000Y9629589D01*
X24829532Y10173919D01*
X24412919Y10590532D01*
X24377990Y10605000D01*
X24412919Y10619468D01*
X24829532Y11036081D01*
X25055000Y11580411D01*
X25055000Y12169589D01*
X24829532Y12713919D01*
X24412919Y13130532D01*
X24377990Y13145000D01*
X24412919Y13159468D01*
X24829532Y13576081D01*
X25055000Y14120411D01*
X25055000Y14709589D01*
X24829532Y15253919D01*
X24412919Y15670532D01*
X24377990Y15685000D01*
X24412919Y15699468D01*
X24829532Y16116081D01*
X25055000Y16660411D01*
X25055000Y17249589D01*
X24829532Y17793919D01*
X24412919Y18210532D01*
X24377990Y18225000D01*
X24412919Y18239468D01*
X24829532Y18656081D01*
X25055000Y19200411D01*
X25055000Y19789589D01*
X24829532Y20333919D01*
X24412919Y20750532D01*
X23868589Y20976000D01*
X23279411Y20976000D01*
X22735081Y20750532D01*
X22318468Y20333919D01*
X22093000Y19789589D01*
X21272000Y19789589D01*
X21272000Y22131074D01*
X21524304Y22383378D01*
X21772000Y22981370D01*
X21772000Y23351339D01*
X23299254Y21824085D01*
X23373287Y21713287D01*
X23812230Y21419994D01*
X24199304Y21343000D01*
X24199307Y21343000D01*
X24329999Y21317004D01*
X24460691Y21343000D01*
X26016862Y21343000D01*
X25956999Y21303001D01*
X25597400Y20764824D01*
X25471126Y20130000D01*
X25597400Y19495176D01*
X25956999Y18956999D01*
X26102168Y18860000D01*
X25956999Y18763001D01*
X25597400Y18224824D01*
X25471126Y17590000D01*
X25597400Y16955176D01*
X25956999Y16416999D01*
X26102168Y16320000D01*
X25956999Y16223001D01*
X25597400Y15684824D01*
X25471126Y15050000D01*
X25597400Y14415176D01*
X25956999Y13876999D01*
X26102168Y13780000D01*
X25956999Y13683001D01*
X25597400Y13144824D01*
X25471126Y12510000D01*
X25597400Y11875176D01*
X25956999Y11336999D01*
X26102168Y11240000D01*
X25956999Y11143001D01*
X25597400Y10604824D01*
X25471126Y9970000D01*
X25597400Y9335176D01*
X25956999Y8796999D01*
X26102168Y8700000D01*
X25956999Y8603001D01*
X25597400Y8064824D01*
X25471126Y7430000D01*
X25597400Y6795176D01*
X25956999Y6256999D01*
X26102168Y6160000D01*
X25956999Y6063001D01*
X25597400Y5524824D01*
X25471126Y4890000D01*
X25597400Y4255176D01*
X25956999Y3716999D01*
X26495176Y3357400D01*
X26969758Y3263000D01*
X27290242Y3263000D01*
X27764824Y3357400D01*
X28303001Y3716999D01*
X28662600Y4255176D01*
X28788874Y4890000D01*
X28662600Y5524824D01*
X28303001Y6063001D01*
X28157832Y6160000D01*
X28303001Y6256999D01*
X28662600Y6795176D01*
X28788874Y7430000D01*
X28662600Y8064824D01*
X28303001Y8603001D01*
X28157832Y8700000D01*
X28303001Y8796999D01*
X28662600Y9335176D01*
X28788874Y9970000D01*
X28662600Y10604824D01*
X28303001Y11143001D01*
X28157832Y11240000D01*
X28303001Y11336999D01*
X28662600Y11875176D01*
X28788874Y12510000D01*
X28662600Y13144824D01*
X28303001Y13683001D01*
X28157832Y13780000D01*
X28303001Y13876999D01*
X28662600Y14415176D01*
X28788874Y15050000D01*
X28662600Y15684824D01*
X28303001Y16223001D01*
X28157832Y16320000D01*
X28303001Y16416999D01*
X28662600Y16955176D01*
X28788874Y17590000D01*
X28662600Y18224824D01*
X28303001Y18763001D01*
X28157832Y18860000D01*
X28303001Y18956999D01*
X28662600Y19495176D01*
X28788874Y20130000D01*
X28662600Y20764824D01*
X28303001Y21303001D01*
X28157832Y21400000D01*
X28303001Y21496999D01*
X28662600Y22035176D01*
X28788874Y22670000D01*
X28662600Y23304824D01*
X28303001Y23843001D01*
X28157832Y23940000D01*
X28303001Y24036999D01*
X28662600Y24575176D01*
X28788874Y25210000D01*
X28755146Y25379564D01*
X29613000Y24521709D01*
X29613001Y20107756D01*
X29613000Y20107751D01*
X29613000Y19819610D01*
X29221593Y19428203D01*
X28913000Y18683195D01*
X28913000Y17876805D01*
X29221593Y17131797D01*
X29791797Y16561593D01*
X30536805Y16253000D01*
X30812999Y16253000D01*
X30812999Y16188695D01*
X30787003Y16058003D01*
X30812999Y15927311D01*
X30812999Y15927307D01*
X30889993Y15540233D01*
X31183287Y15101290D01*
X31294085Y15027257D01*
X33762999Y12558342D01*
X33763000Y8808011D01*
X33737003Y8677315D01*
X33839993Y8159546D01*
X33935026Y8017320D01*
X34133287Y7720602D01*
X34244085Y7646569D01*
X35476892Y6413762D01*
X35239475Y6176345D01*
X34923320Y5413077D01*
X34923320Y4586923D01*
X35239475Y3823655D01*
X35823655Y3239475D01*
X36586923Y2923320D01*
X37413077Y2923320D01*
X38176345Y3239475D01*
X38760525Y3823655D01*
X39076680Y4586923D01*
X39076680Y5413077D01*
X38760525Y6176345D01*
X38327000Y6609870D01*
X38327000Y6636623D01*
X38352996Y6767315D01*
X38327000Y6898009D01*
X38327000Y6898010D01*
X38250006Y7285084D01*
X38153176Y7430000D01*
X38030746Y7613229D01*
X38030744Y7613231D01*
X37956712Y7724027D01*
X37845917Y7798058D01*
X36416999Y9226975D01*
X36416999Y12977312D01*
X36442995Y13108004D01*
X36416999Y13238698D01*
X36416999Y13238699D01*
X36340005Y13625773D01*
X36301766Y13683001D01*
X36120745Y13953918D01*
X36120743Y13953920D01*
X36046711Y14064716D01*
X35935916Y14138747D01*
X33466999Y16607663D01*
X33466999Y16949309D01*
X33467733Y16953000D01*
X35900390Y16953000D01*
X36291797Y16561593D01*
X37036805Y16253000D01*
X37843195Y16253000D01*
X38588203Y16561593D01*
X39158407Y17131797D01*
X39467000Y17876805D01*
X39467000Y18683195D01*
X39158407Y19428203D01*
X38588203Y19998407D01*
X37843195Y20307000D01*
X37036805Y20307000D01*
X36291797Y19998407D01*
X35900390Y19607000D01*
X32479610Y19607000D01*
X32267000Y19819610D01*
X32267000Y24940678D01*
X32292996Y25071370D01*
X32267000Y25202062D01*
X32267000Y25202066D01*
X32190006Y25589140D01*
X32053598Y25793288D01*
X31970746Y25917285D01*
X31970744Y25917287D01*
X31896712Y26028083D01*
X31785917Y26102114D01*
X29292118Y28595912D01*
X29218083Y28706713D01*
X28779140Y29000006D01*
X28392066Y29077000D01*
X28392062Y29077000D01*
X28277301Y29099827D01*
X28303001Y29116999D01*
X28662600Y29655176D01*
X28788874Y30290000D01*
X28662600Y30924824D01*
X28303001Y31463001D01*
X27764824Y31822600D01*
X27290242Y31917000D01*
X26969758Y31917000D01*
X26495176Y31822600D01*
X25956999Y31463001D01*
X25597400Y30924824D01*
X25471126Y30290000D01*
X25597400Y29655176D01*
X25956999Y29116999D01*
X26102168Y29020000D01*
X25956999Y28923001D01*
X25597400Y28384824D01*
X25471126Y27750000D01*
X25597400Y27115176D01*
X25822765Y26777894D01*
X21472000Y31128658D01*
X21472000Y32522474D01*
X21677600Y32830176D01*
X21803874Y33465000D01*
X21677600Y34099824D01*
X21318001Y34638001D01*
X20779824Y34997600D01*
X20305242Y35092000D01*
X19984758Y35092000D01*
X19510176Y34997600D01*
X18971999Y34638001D01*
X18612400Y34099824D01*
X18486126Y33465000D01*
X18612400Y32830176D01*
X18818000Y32522474D01*
X18818001Y30709694D01*
X18792004Y30578998D01*
X18894994Y30061229D01*
X19114254Y29733084D01*
X19188288Y29622285D01*
X19299086Y29548252D01*
X21757543Y27089794D01*
X21517770Y27250006D01*
X21130696Y27327000D01*
X21130692Y27327000D01*
X21000000Y27352996D01*
X20869308Y27327000D01*
X19623796Y27327000D01*
X19632000Y27346805D01*
X19632000Y28153195D01*
X19323407Y28898203D01*
X18753203Y29468407D01*
X18008195Y29777000D01*
X17201805Y29777000D01*
X16456797Y29468407D01*
X15886593Y28898203D01*
X15578000Y28153195D01*
X15578000Y27601520D01*
X15354995Y27267771D01*
X15278001Y26880697D01*
X15278001Y26880693D01*
X15252005Y26750001D01*
X15278001Y26619309D01*
X15278001Y26029663D01*
X14617881Y25369543D01*
X14617881Y27094680D01*
X14553696Y27417359D01*
X14370913Y27690913D01*
X14097359Y27873696D01*
X13774680Y27937881D01*
X13744751Y27937881D01*
X14285525Y28478655D01*
X14601680Y29241923D01*
X14601680Y30068077D01*
X14285525Y30831345D01*
X13701345Y31415525D01*
X12938077Y31731680D01*
X12111923Y31731680D01*
X11348655Y31415525D01*
X10915130Y30982000D01*
X6161768Y30982000D01*
X5939912Y31203856D01*
X5268413Y31482000D01*
X4541587Y31482000D01*
X3870088Y31203856D01*
X3648232Y30982000D01*
X3621479Y30982000D01*
X3490787Y31007996D01*
X3360095Y30982000D01*
X3360091Y30982000D01*
X2973017Y30905006D01*
X2917634Y30868000D01*
X2644872Y30685747D01*
X2644869Y30685744D01*
X2534074Y30611713D01*
X2460042Y30500917D01*
X1139075Y29179948D01*
X1028277Y29105915D01*
X902000Y28916929D01*
X902000Y45098000D01*
X1870428Y45098000D01*
X1561599Y44635806D01*
X1561599Y44635806D01*
G37*
X1561599Y44635806D02*
X1473001Y44190393D01*
X1473000Y41789608D01*
X1561598Y41344195D01*
X1899095Y40839095D01*
X2404194Y40501598D01*
X3000000Y40383085D01*
X3595805Y40501598D01*
X4100905Y40839095D01*
X4300450Y41137735D01*
X4504194Y41001598D01*
X5100000Y40883085D01*
X5695805Y41001598D01*
X5773001Y41053178D01*
X5773001Y40019662D01*
X4871541Y39118201D01*
X3905000Y39118201D01*
X3582321Y39054016D01*
X3308767Y38871233D01*
X3125984Y38597679D01*
X3061799Y38275000D01*
X3061799Y36275000D01*
X3125984Y35952321D01*
X3308767Y35678767D01*
X3582321Y35495984D01*
X3905000Y35431799D01*
X5905000Y35431799D01*
X6227679Y35495984D01*
X6501233Y35678767D01*
X6684016Y35952321D01*
X6748201Y36275000D01*
X6748201Y37241541D01*
X7945915Y38439254D01*
X8056713Y38513287D01*
X8138421Y38635571D01*
X8143287Y38628288D01*
X8254086Y38554254D01*
X11649256Y35159082D01*
X11723287Y35048287D01*
X11834082Y34974256D01*
X11834085Y34974253D01*
X12028846Y34844119D01*
X12162230Y34754994D01*
X12549304Y34678000D01*
X12549308Y34678000D01*
X12669899Y34654013D01*
X12833767Y34408767D01*
X13107321Y34225984D01*
X13430000Y34161799D01*
X15430000Y34161799D01*
X15752679Y34225984D01*
X16026233Y34408767D01*
X16209016Y34682321D01*
X16273201Y35005000D01*
X16273201Y37005000D01*
X16209016Y37327679D01*
X16026233Y37601233D01*
X15752679Y37784016D01*
X15430000Y37848201D01*
X13430000Y37848201D01*
X13107321Y37784016D01*
X12909695Y37651967D01*
X10427000Y40134660D01*
X10427000Y40619995D01*
X10604194Y40501598D01*
X11200000Y40383085D01*
X11795805Y40501598D01*
X12300905Y40839095D01*
X12638402Y41344194D01*
X12727000Y41789607D01*
X12727000Y42885207D01*
X13112806Y42307806D01*
X13717140Y41904004D01*
X14250057Y41798000D01*
X14609943Y41798000D01*
X15142860Y41904004D01*
X15747194Y42307806D01*
X16150996Y42912140D01*
X16289350Y43607689D01*
X16654682Y43973021D01*
X20521360Y43973021D01*
X17755340Y41207000D01*
X17201805Y41207000D01*
X16456797Y40898407D01*
X15886593Y40328203D01*
X15578000Y39583195D01*
X15578000Y38776805D01*
X15886593Y38031797D01*
X16456797Y37461593D01*
X17201805Y37153000D01*
X18008195Y37153000D01*
X18753203Y37461593D01*
X19323407Y38031797D01*
X19632000Y38776805D01*
X19632000Y39330340D01*
X22624672Y42323011D01*
X23599192Y42323011D01*
X23353182Y42077000D01*
X22996370Y42077000D01*
X22398378Y41829304D01*
X21940696Y41371622D01*
X21693000Y40773630D01*
X21693000Y40126370D01*
X21940696Y39528378D01*
X22398378Y39070696D01*
X22996370Y38823000D01*
X23643630Y38823000D01*
X24241622Y39070696D01*
X24699304Y39528378D01*
X24947000Y40126370D01*
X24947000Y40483182D01*
X25486799Y41022980D01*
X25486799Y39650000D01*
X25550984Y39327321D01*
X25733767Y39053767D01*
X25874592Y38959671D01*
X25597400Y38544824D01*
X25471126Y37910000D01*
X25597400Y37275176D01*
X25956999Y36736999D01*
X26102168Y36640000D01*
X25956999Y36543001D01*
X25597400Y36004824D01*
X25471126Y35370000D01*
X25597400Y34735176D01*
X25956999Y34196999D01*
X26495176Y33837400D01*
X26969758Y33743000D01*
X27290242Y33743000D01*
X27764824Y33837400D01*
X28303001Y34196999D01*
X28662600Y34735176D01*
X28788874Y35370000D01*
X28662600Y36004824D01*
X28303001Y36543001D01*
X28157832Y36640000D01*
X28303001Y36736999D01*
X28662600Y37275176D01*
X28788874Y37910000D01*
X28662600Y38544824D01*
X28385408Y38959671D01*
X28526233Y39053767D01*
X28709016Y39327321D01*
X28773201Y39650000D01*
X28773201Y40522983D01*
X31083000Y38213183D01*
X31083001Y33651769D01*
X30661144Y33229912D01*
X30383000Y32558413D01*
X30383000Y31831587D01*
X30661144Y31160088D01*
X30883000Y30938232D01*
X30883000Y30911479D01*
X30857004Y30780787D01*
X30883000Y30650095D01*
X30883000Y30650091D01*
X30923139Y30448302D01*
X30959994Y30263018D01*
X31164661Y29956713D01*
X31253288Y29824074D01*
X31364086Y29750041D01*
X32960040Y28154086D01*
X33034074Y28043287D01*
X33473017Y27749994D01*
X33860091Y27673000D01*
X33860094Y27673000D01*
X33990786Y27647004D01*
X34121478Y27673000D01*
X36450340Y27673000D01*
X39092999Y25030340D01*
X39093000Y23619327D01*
X39067003Y23488631D01*
X39169993Y22970862D01*
X39389253Y22642717D01*
X39463287Y22531918D01*
X39574085Y22457885D01*
X40207882Y21824088D01*
X40281917Y21713287D01*
X40720860Y21419994D01*
X41107934Y21343000D01*
X41107937Y21343000D01*
X41222698Y21320173D01*
X41196999Y21303001D01*
X40837400Y20764824D01*
X40711126Y20130000D01*
X40837400Y19495176D01*
X41196999Y18956999D01*
X41342168Y18860000D01*
X41196999Y18763001D01*
X40837400Y18224824D01*
X40711126Y17590000D01*
X40837400Y16955176D01*
X41196999Y16416999D01*
X41342168Y16320000D01*
X41196999Y16223001D01*
X40837400Y15684824D01*
X40711126Y15050000D01*
X40837400Y14415176D01*
X41196999Y13876999D01*
X41342168Y13780000D01*
X41196999Y13683001D01*
X40837400Y13144824D01*
X40711126Y12510000D01*
X40837400Y11875176D01*
X41196999Y11336999D01*
X41342168Y11240000D01*
X41196999Y11143001D01*
X40837400Y10604824D01*
X40711126Y9970000D01*
X40837400Y9335176D01*
X41196999Y8796999D01*
X41342168Y8700000D01*
X41196999Y8603001D01*
X40837400Y8064824D01*
X40711126Y7430000D01*
X40837400Y6795176D01*
X41196999Y6256999D01*
X41342168Y6160000D01*
X41196999Y6063001D01*
X40837400Y5524824D01*
X40711126Y4890000D01*
X40837400Y4255176D01*
X41196999Y3716999D01*
X41735176Y3357400D01*
X42209758Y3263000D01*
X42530242Y3263000D01*
X43004824Y3357400D01*
X43543001Y3716999D01*
X43902600Y4255176D01*
X44028874Y4890000D01*
X43902600Y5524824D01*
X43543001Y6063001D01*
X43397832Y6160000D01*
X43543001Y6256999D01*
X43902600Y6795176D01*
X44028874Y7430000D01*
X43902600Y8064824D01*
X43543001Y8603001D01*
X43397832Y8700000D01*
X43543001Y8796999D01*
X43902600Y9335176D01*
X44028874Y9970000D01*
X43902600Y10604824D01*
X43543001Y11143001D01*
X43397832Y11240000D01*
X43543001Y11336999D01*
X43902600Y11875176D01*
X44028874Y12510000D01*
X43902600Y13144824D01*
X43543001Y13683001D01*
X43397832Y13780000D01*
X43543001Y13876999D01*
X43902600Y14415176D01*
X44028874Y15050000D01*
X43902600Y15684824D01*
X43543001Y16223001D01*
X43397832Y16320000D01*
X43543001Y16416999D01*
X43902600Y16955176D01*
X44028874Y17590000D01*
X43902600Y18224824D01*
X43543001Y18763001D01*
X43397832Y18860000D01*
X43543001Y18956999D01*
X43902600Y19495176D01*
X44028874Y20130000D01*
X43902600Y20764824D01*
X43543001Y21303001D01*
X43397832Y21400000D01*
X43543001Y21496999D01*
X43902600Y22035176D01*
X44028874Y22670000D01*
X43902600Y23304824D01*
X43543001Y23843001D01*
X43397832Y23940000D01*
X43543001Y24036999D01*
X43902600Y24575176D01*
X44028874Y25210000D01*
X43902600Y25844824D01*
X43543001Y26383001D01*
X43397832Y26480000D01*
X43543001Y26576999D01*
X43902600Y27115176D01*
X44028874Y27750000D01*
X43902600Y28384824D01*
X43543001Y28923001D01*
X43397832Y29020000D01*
X43543001Y29116999D01*
X43902600Y29655176D01*
X44028874Y30290000D01*
X43902600Y30924824D01*
X43543001Y31463001D01*
X43397832Y31560000D01*
X43543001Y31656999D01*
X43902600Y32195176D01*
X44028874Y32830000D01*
X43902600Y33464824D01*
X43543001Y34003001D01*
X43397832Y34100000D01*
X43543001Y34196999D01*
X43902600Y34735176D01*
X44028874Y35370000D01*
X43902600Y36004824D01*
X43543001Y36543001D01*
X43004824Y36902600D01*
X42530242Y36997000D01*
X42209758Y36997000D01*
X41735176Y36902600D01*
X41196999Y36543001D01*
X40837400Y36004824D01*
X40711126Y35370000D01*
X40837400Y34735176D01*
X41196999Y34196999D01*
X41256862Y34157000D01*
X39960692Y34157000D01*
X39830000Y34182996D01*
X39699308Y34157000D01*
X39699304Y34157000D01*
X39312230Y34080006D01*
X38873287Y33786713D01*
X38799253Y33675914D01*
X38645339Y33522000D01*
X36537000Y33522000D01*
X36537000Y37599933D01*
X36562996Y37730625D01*
X36537000Y37861317D01*
X36537000Y37861321D01*
X36460006Y38248395D01*
X36283010Y38513287D01*
X36240746Y38576540D01*
X36240744Y38576542D01*
X36166712Y38687338D01*
X36055917Y38761369D01*
X30844264Y43973021D01*
X36970319Y43973021D01*
X40724086Y40219253D01*
X40724089Y40219251D01*
X40765203Y40178137D01*
X40837400Y39815176D01*
X41196999Y39276999D01*
X41735176Y38917400D01*
X42209758Y38823000D01*
X42530242Y38823000D01*
X43004824Y38917400D01*
X43543001Y39276999D01*
X43902600Y39815176D01*
X44028874Y40450000D01*
X43902600Y41084824D01*
X43543001Y41623001D01*
X43004824Y41982600D01*
X42641863Y42054797D01*
X42600749Y42095911D01*
X42600747Y42095914D01*
X39598660Y45098000D01*
X45098000Y45098000D01*
X45098001Y902000D01*
X24840268Y902000D01*
X25055000Y1420411D01*
X25055000Y2009589D01*
X24829532Y2553919D01*
X24412919Y2970532D01*
X23868589Y3196000D01*
X23279411Y3196000D01*
X22735081Y2970532D01*
X22318468Y2553919D01*
X22093000Y2009589D01*
X22093000Y1420411D01*
X22307732Y902000D01*
X6806268Y902000D01*
X7021000Y1420411D01*
X7021000Y2009589D01*
X6795532Y2553919D01*
X6378919Y2970532D01*
X5834589Y3196000D01*
X5245411Y3196000D01*
X4873621Y3042000D01*
X3549661Y3042000D01*
X3311990Y3279670D01*
X3311990Y6221454D01*
X3584359Y5949086D01*
X3658392Y5838287D01*
X4097335Y5544994D01*
X4484409Y5468000D01*
X4484413Y5468000D01*
X4615105Y5442004D01*
X4745797Y5468000D01*
X4873621Y5468000D01*
X5245411Y5314000D01*
X5834589Y5314000D01*
X6378919Y5539468D01*
X6795532Y5956081D01*
X7021000Y6500411D01*
X7021000Y7089589D01*
X6795532Y7633919D01*
X6378919Y8050532D01*
X6343990Y8065000D01*
X6378919Y8079468D01*
X6795532Y8496081D01*
X7021000Y9040411D01*
X7021000Y9629589D01*
X6795532Y10173919D01*
X6378919Y10590532D01*
X6343990Y10605000D01*
X6378919Y10619468D01*
X6795532Y11036081D01*
X7021000Y11580411D01*
X7021000Y12169589D01*
X6795532Y12713919D01*
X6378919Y13130532D01*
X6343990Y13145000D01*
X6378919Y13159468D01*
X6507451Y13288000D01*
X16859002Y13288000D01*
X16970000Y13265921D01*
X17080998Y13288000D01*
X17080999Y13288000D01*
X17409733Y13353389D01*
X17782522Y13602478D01*
X17845400Y13696582D01*
X20863421Y16714602D01*
X20957522Y16777478D01*
X21206611Y17150267D01*
X21272000Y17479001D01*
X21272000Y17479002D01*
X21294079Y17589999D01*
X21272000Y17700997D01*
X21272000Y19789589D01*
X22093000Y19789589D01*
X22093000Y19200411D01*
X22318468Y18656081D01*
X22735081Y18239468D01*
X22770010Y18225000D01*
X22735081Y18210532D01*
X22318468Y17793919D01*
X22093000Y17249589D01*
X22093000Y16660411D01*
X22318468Y16116081D01*
X22735081Y15699468D01*
X22770010Y15685000D01*
X22735081Y15670532D01*
X22318468Y15253919D01*
X22093000Y14709589D01*
X22093000Y14120411D01*
X22318468Y13576081D01*
X22735081Y13159468D01*
X22770010Y13145000D01*
X22735081Y13130532D01*
X22318468Y12713919D01*
X22093000Y12169589D01*
X22093000Y11580411D01*
X22318468Y11036081D01*
X22735081Y10619468D01*
X22770010Y10605000D01*
X22735081Y10590532D01*
X22318468Y10173919D01*
X22093000Y9629589D01*
X22093000Y9040411D01*
X22318468Y8496081D01*
X22735081Y8079468D01*
X22770010Y8065000D01*
X22735081Y8050532D01*
X22318468Y7633919D01*
X22093000Y7089589D01*
X22093000Y6500411D01*
X22318468Y5956081D01*
X22735081Y5539468D01*
X23279411Y5314000D01*
X23868589Y5314000D01*
X24412919Y5539468D01*
X24829532Y5956081D01*
X25055000Y6500411D01*
X25055000Y7089589D01*
X24829532Y7633919D01*
X24412919Y8050532D01*
X24377990Y8065000D01*
X24412919Y8079468D01*
X24829532Y8496081D01*
X25055000Y9040411D01*
X25055000Y9629589D01*
X24829532Y10173919D01*
X24412919Y10590532D01*
X24377990Y10605000D01*
X24412919Y10619468D01*
X24829532Y11036081D01*
X25055000Y11580411D01*
X25055000Y12169589D01*
X24829532Y12713919D01*
X24412919Y13130532D01*
X24377990Y13145000D01*
X24412919Y13159468D01*
X24829532Y13576081D01*
X25055000Y14120411D01*
X25055000Y14709589D01*
X24829532Y15253919D01*
X24412919Y15670532D01*
X24377990Y15685000D01*
X24412919Y15699468D01*
X24829532Y16116081D01*
X25055000Y16660411D01*
X25055000Y17249589D01*
X24829532Y17793919D01*
X24412919Y18210532D01*
X24377990Y18225000D01*
X24412919Y18239468D01*
X24829532Y18656081D01*
X25055000Y19200411D01*
X25055000Y19789589D01*
X24829532Y20333919D01*
X24412919Y20750532D01*
X23868589Y20976000D01*
X23279411Y20976000D01*
X22735081Y20750532D01*
X22318468Y20333919D01*
X22093000Y19789589D01*
X21272000Y19789589D01*
X21272000Y22131074D01*
X21524304Y22383378D01*
X21772000Y22981370D01*
X21772000Y23351339D01*
X23299254Y21824085D01*
X23373287Y21713287D01*
X23812230Y21419994D01*
X24199304Y21343000D01*
X24199307Y21343000D01*
X24329999Y21317004D01*
X24460691Y21343000D01*
X26016862Y21343000D01*
X25956999Y21303001D01*
X25597400Y20764824D01*
X25471126Y20130000D01*
X25597400Y19495176D01*
X25956999Y18956999D01*
X26102168Y18860000D01*
X25956999Y18763001D01*
X25597400Y18224824D01*
X25471126Y17590000D01*
X25597400Y16955176D01*
X25956999Y16416999D01*
X26102168Y16320000D01*
X25956999Y16223001D01*
X25597400Y15684824D01*
X25471126Y15050000D01*
X25597400Y14415176D01*
X25956999Y13876999D01*
X26102168Y13780000D01*
X25956999Y13683001D01*
X25597400Y13144824D01*
X25471126Y12510000D01*
X25597400Y11875176D01*
X25956999Y11336999D01*
X26102168Y11240000D01*
X25956999Y11143001D01*
X25597400Y10604824D01*
X25471126Y9970000D01*
X25597400Y9335176D01*
X25956999Y8796999D01*
X26102168Y8700000D01*
X25956999Y8603001D01*
X25597400Y8064824D01*
X25471126Y7430000D01*
X25597400Y6795176D01*
X25956999Y6256999D01*
X26102168Y6160000D01*
X25956999Y6063001D01*
X25597400Y5524824D01*
X25471126Y4890000D01*
X25597400Y4255176D01*
X25956999Y3716999D01*
X26495176Y3357400D01*
X26969758Y3263000D01*
X27290242Y3263000D01*
X27764824Y3357400D01*
X28303001Y3716999D01*
X28662600Y4255176D01*
X28788874Y4890000D01*
X28662600Y5524824D01*
X28303001Y6063001D01*
X28157832Y6160000D01*
X28303001Y6256999D01*
X28662600Y6795176D01*
X28788874Y7430000D01*
X28662600Y8064824D01*
X28303001Y8603001D01*
X28157832Y8700000D01*
X28303001Y8796999D01*
X28662600Y9335176D01*
X28788874Y9970000D01*
X28662600Y10604824D01*
X28303001Y11143001D01*
X28157832Y11240000D01*
X28303001Y11336999D01*
X28662600Y11875176D01*
X28788874Y12510000D01*
X28662600Y13144824D01*
X28303001Y13683001D01*
X28157832Y13780000D01*
X28303001Y13876999D01*
X28662600Y14415176D01*
X28788874Y15050000D01*
X28662600Y15684824D01*
X28303001Y16223001D01*
X28157832Y16320000D01*
X28303001Y16416999D01*
X28662600Y16955176D01*
X28788874Y17590000D01*
X28662600Y18224824D01*
X28303001Y18763001D01*
X28157832Y18860000D01*
X28303001Y18956999D01*
X28662600Y19495176D01*
X28788874Y20130000D01*
X28662600Y20764824D01*
X28303001Y21303001D01*
X28157832Y21400000D01*
X28303001Y21496999D01*
X28662600Y22035176D01*
X28788874Y22670000D01*
X28662600Y23304824D01*
X28303001Y23843001D01*
X28157832Y23940000D01*
X28303001Y24036999D01*
X28662600Y24575176D01*
X28788874Y25210000D01*
X28755146Y25379564D01*
X29613000Y24521709D01*
X29613001Y20107756D01*
X29613000Y20107751D01*
X29613000Y19819610D01*
X29221593Y19428203D01*
X28913000Y18683195D01*
X28913000Y17876805D01*
X29221593Y17131797D01*
X29791797Y16561593D01*
X30536805Y16253000D01*
X30812999Y16253000D01*
X30812999Y16188695D01*
X30787003Y16058003D01*
X30812999Y15927311D01*
X30812999Y15927307D01*
X30889993Y15540233D01*
X31183287Y15101290D01*
X31294085Y15027257D01*
X33762999Y12558342D01*
X33763000Y8808011D01*
X33737003Y8677315D01*
X33839993Y8159546D01*
X33935026Y8017320D01*
X34133287Y7720602D01*
X34244085Y7646569D01*
X35476892Y6413762D01*
X35239475Y6176345D01*
X34923320Y5413077D01*
X34923320Y4586923D01*
X35239475Y3823655D01*
X35823655Y3239475D01*
X36586923Y2923320D01*
X37413077Y2923320D01*
X38176345Y3239475D01*
X38760525Y3823655D01*
X39076680Y4586923D01*
X39076680Y5413077D01*
X38760525Y6176345D01*
X38327000Y6609870D01*
X38327000Y6636623D01*
X38352996Y6767315D01*
X38327000Y6898009D01*
X38327000Y6898010D01*
X38250006Y7285084D01*
X38153176Y7430000D01*
X38030746Y7613229D01*
X38030744Y7613231D01*
X37956712Y7724027D01*
X37845917Y7798058D01*
X36416999Y9226975D01*
X36416999Y12977312D01*
X36442995Y13108004D01*
X36416999Y13238698D01*
X36416999Y13238699D01*
X36340005Y13625773D01*
X36301766Y13683001D01*
X36120745Y13953918D01*
X36120743Y13953920D01*
X36046711Y14064716D01*
X35935916Y14138747D01*
X33466999Y16607663D01*
X33466999Y16949309D01*
X33467733Y16953000D01*
X35900390Y16953000D01*
X36291797Y16561593D01*
X37036805Y16253000D01*
X37843195Y16253000D01*
X38588203Y16561593D01*
X39158407Y17131797D01*
X39467000Y17876805D01*
X39467000Y18683195D01*
X39158407Y19428203D01*
X38588203Y19998407D01*
X37843195Y20307000D01*
X37036805Y20307000D01*
X36291797Y19998407D01*
X35900390Y19607000D01*
X32479610Y19607000D01*
X32267000Y19819610D01*
X32267000Y24940678D01*
X32292996Y25071370D01*
X32267000Y25202062D01*
X32267000Y25202066D01*
X32190006Y25589140D01*
X32053598Y25793288D01*
X31970746Y25917285D01*
X31970744Y25917287D01*
X31896712Y26028083D01*
X31785917Y26102114D01*
X29292118Y28595912D01*
X29218083Y28706713D01*
X28779140Y29000006D01*
X28392066Y29077000D01*
X28392062Y29077000D01*
X28277301Y29099827D01*
X28303001Y29116999D01*
X28662600Y29655176D01*
X28788874Y30290000D01*
X28662600Y30924824D01*
X28303001Y31463001D01*
X27764824Y31822600D01*
X27290242Y31917000D01*
X26969758Y31917000D01*
X26495176Y31822600D01*
X25956999Y31463001D01*
X25597400Y30924824D01*
X25471126Y30290000D01*
X25597400Y29655176D01*
X25956999Y29116999D01*
X26102168Y29020000D01*
X25956999Y28923001D01*
X25597400Y28384824D01*
X25471126Y27750000D01*
X25597400Y27115176D01*
X25822765Y26777894D01*
X21472000Y31128658D01*
X21472000Y32522474D01*
X21677600Y32830176D01*
X21803874Y33465000D01*
X21677600Y34099824D01*
X21318001Y34638001D01*
X20779824Y34997600D01*
X20305242Y35092000D01*
X19984758Y35092000D01*
X19510176Y34997600D01*
X18971999Y34638001D01*
X18612400Y34099824D01*
X18486126Y33465000D01*
X18612400Y32830176D01*
X18818000Y32522474D01*
X18818001Y30709694D01*
X18792004Y30578998D01*
X18894994Y30061229D01*
X19114254Y29733084D01*
X19188288Y29622285D01*
X19299086Y29548252D01*
X21757543Y27089794D01*
X21517770Y27250006D01*
X21130696Y27327000D01*
X21130692Y27327000D01*
X21000000Y27352996D01*
X20869308Y27327000D01*
X19623796Y27327000D01*
X19632000Y27346805D01*
X19632000Y28153195D01*
X19323407Y28898203D01*
X18753203Y29468407D01*
X18008195Y29777000D01*
X17201805Y29777000D01*
X16456797Y29468407D01*
X15886593Y28898203D01*
X15578000Y28153195D01*
X15578000Y27601520D01*
X15354995Y27267771D01*
X15278001Y26880697D01*
X15278001Y26880693D01*
X15252005Y26750001D01*
X15278001Y26619309D01*
X15278001Y26029663D01*
X14617881Y25369543D01*
X14617881Y27094680D01*
X14553696Y27417359D01*
X14370913Y27690913D01*
X14097359Y27873696D01*
X13774680Y27937881D01*
X13744751Y27937881D01*
X14285525Y28478655D01*
X14601680Y29241923D01*
X14601680Y30068077D01*
X14285525Y30831345D01*
X13701345Y31415525D01*
X12938077Y31731680D01*
X12111923Y31731680D01*
X11348655Y31415525D01*
X10915130Y30982000D01*
X6161768Y30982000D01*
X5939912Y31203856D01*
X5268413Y31482000D01*
X4541587Y31482000D01*
X3870088Y31203856D01*
X3648232Y30982000D01*
X3621479Y30982000D01*
X3490787Y31007996D01*
X3360095Y30982000D01*
X3360091Y30982000D01*
X2973017Y30905006D01*
X2917634Y30868000D01*
X2644872Y30685747D01*
X2644869Y30685744D01*
X2534074Y30611713D01*
X2460042Y30500917D01*
X1139075Y29179948D01*
X1028277Y29105915D01*
X902000Y28916929D01*
X902000Y45098000D01*
X1870428Y45098000D01*
X1561599Y44635806D01*
G04 #@! TD*
M02*
