M48
;DRILL file {KiCad (5.0.1)-4} date 25/06/2020 10:55:52
;FORMAT={-:-/ absolute / metric / decimal}
FMAT,2
METRIC,TZ
T1C0.800
T2C1.000
T3C1.001
T4C1.100
%
G90
G05
M71
T1
X17.605Y39.18
X17.605Y27.75
X5.54Y19.495
X5.54Y16.955
X5.54Y14.415
X5.54Y11.875
X5.54Y9.335
X5.54Y6.795
X5.54Y4.255
X5.54Y1.715
X23.574Y19.495
X23.574Y16.955
X23.574Y14.415
X23.574Y11.875
X23.574Y9.335
X23.574Y6.795
X23.574Y4.255
X23.574Y1.715
X14.43Y43.625
X14.43Y36.005
X27.13Y40.45
X27.13Y37.91
X27.13Y35.37
X27.13Y32.83
X27.13Y30.29
X27.13Y27.75
X27.13Y25.21
X27.13Y22.67
X27.13Y20.13
X27.13Y17.59
X27.13Y15.05
X27.13Y12.51
X27.13Y9.97
X27.13Y7.43
X27.13Y4.89
X42.37Y40.45
X42.37Y37.91
X42.37Y35.37
X42.37Y32.83
X42.37Y30.29
X42.37Y27.75
X42.37Y25.21
X42.37Y22.67
X42.37Y20.13
X42.37Y17.59
X42.37Y15.05
X42.37Y12.51
X42.37Y9.97
X42.37Y7.43
X42.37Y4.89
X23.32Y40.45
X23.32Y30.29
X3.Y42.99
X5.1Y42.99
X7.1Y42.99
X9.1Y42.99
X11.2Y42.99
X20.145Y33.465
X20.145Y23.305
X32.21Y32.195
X35.21Y32.195
T2
X4.905Y37.275
X4.905Y33.465
X4.905Y29.655
X4.905Y25.845
T3
X33.19Y5.
X37.Y5.
X12.525Y29.655
X12.525Y25.845
T4
X30.94Y18.28
X30.94Y13.78
X37.44Y18.28
X37.44Y13.78
T0
M30
